<svg width="206" height="91" viewBox="0 0 206 91" fill="none" xmlns="http://www.w3.org/2000/svg">
<g clip-path="url(#clip0)">
<path d="M21.0204 57.4H11.9116V77H0V21H25.9252C28.7279 21 31.5306 21.7 33.6327 22.4C35.7347 23.1 37.8367 24.5 39.2381 25.9C41.3401 28 42.7415 30.1 44.1429 32.2C44.8435 34.3 45.5442 37.1 45.5442 39.2C45.5442 42 44.8435 44.1 44.1429 45.5C43.4422 47.6 42.7415 49 41.3401 50.4C39.9388 51.8 38.5374 53.2 37.1361 53.9C35.7347 54.6 34.3333 55.3 32.932 56L45.5442 77H31.5306L21.0204 57.4ZM30.8299 44.8C32.2313 43.4 32.932 41.3 32.932 39.2C32.932 37.1 32.2313 35 30.8299 33.6C28.7279 32.2 26.6259 31.5 24.5238 31.5H11.9116V46.9H24.5238C26.6259 46.9 28.7279 46.2 30.8299 44.8Z" fill="black"/>
<path d="M60.5981 21H100.537V31.5H72.5097V43.4H99.8362V53.9H72.5097V77H60.5981V21Z" fill="black"/>
<path d="M206.679 45.5C206.679 20.3 186.36 0 161.135 0C135.911 0 115.591 20.3 115.591 45.5C115.591 70.7 135.911 91 161.135 91C186.36 91 206.679 70.7 206.679 45.5ZM151.326 75.6C149.223 76.3 149.223 74.9 149.924 74.2C149.924 73.5 150.625 73.5 150.625 72.8C155.53 67.2 159.033 65.1 152.727 65.1C146.421 65.1 144.319 65.1 142.917 63C141.516 61.6 140.815 58.8 140.815 53.2C140.815 46.9 138.713 50.4 133.108 55.3C132.407 56 132.407 56 131.706 56C131.006 56.7 129.604 56.7 130.305 54.6C131.006 50.4 134.509 40.6 139.414 37.8C145.72 33.6 152.026 33.6 154.128 32.2C168.843 21.7 182.155 17.5 185.659 19.6C187.761 22.4 183.557 36.4 173.047 51.1C171.645 53.2 171.645 59.5 167.441 65.8C165.339 71.4 155.53 74.9 151.326 75.6Z" fill="#EF4423"/>
<path d="M172.345 42.7C172.345 46.9 168.841 50.4 163.936 50.4C159.732 50.4 156.229 46.9 156.229 42C156.229 37.8 159.732 34.3 164.637 34.3C168.841 35 172.345 38.5 172.345 42.7Z" fill="#EF4423"/>
</g>
<defs>
<clipPath id="clip0">
<rect width="206" height="91" fill="white"/>
</clipPath>
</defs>
</svg>
